<svg class="svg-icon" style="width: 1em;height: 1em;vertical-align: middle;fill: currentColor;overflow: hidden;" viewBox="0 0 1024 1024" version="1.1" xmlns="http://www.w3.org/2000/svg"><path d="M32.426667 520.533333l-3.413334-1.706666c-7.68-4.266667-13.653333-10.666667-17.92-18.773334-5.973333-11.093333-8.533333-21.333333-8.533333-32l0.853333-5.546666c0-8.533333 2.133333-16.213333 5.973334-23.466667l3.413333-6.4c1.706667-3.413333 4.266667-6.4 6.4-9.386667 2.56-2.986667 2.986667-6.826667 2.133333-10.24l-2.133333-6.826666c-2.56-8.533333-4.266667-17.066667-4.266667-25.6L13.653333 375.466667c0-9.386667 2.56-18.773333 8.533334-25.6l4.266666-5.546667c2.986667-4.266667 7.68-6.826667 12.8-8.533333 4.266667-1.28 7.253333-5.546667 7.68-10.666667l0.853334-14.506667c0-11.52 5.546667-22.186667 14.08-29.866666l10.24-7.68c2.133333-2.133333 4.266667-4.266667 5.973333-7.68 2.133333-2.56 2.56-5.973333 2.133333-8.533334-0.853333-4.266667 0-5.546667 2.133334-5.973333 6.826667 2.56 11.093333 1.706667 14.08-1.706667l5.546666-7.253333 15.36-17.066667a17.066667 17.066667 0 0 0 3.413334-17.92l-5.12-11.093333c-0.853333-2.56 0-5.546667 2.133333-6.4 5.546667 0 9.386667 2.133333 11.093333 5.546667l1.706667 2.986666c2.56 5.12 8.533333 7.68 12.8 5.546667 9.386667-3.413333 17.066667-4.266667 24.32-4.266667h13.653333c9.386667 0 17.066667-6.4 18.773334-16.213333 1.706667-11.946667 5.973333-21.333333 11.946666-27.733333 6.4-7.253333 13.653333-12.8 22.186667-17.066667 11.093333-5.973333 17.92-14.506667 20.053333-25.6 2.986667-13.653333 10.24-23.466667 20.053334-29.866667l32.426666-18.346666 9.386667-5.546667c5.546667-3.413333 10.666667-7.68 14.933333-12.8l8.533334-10.24c4.266667-4.266667 8.533333-7.253333 13.653333-8.533333 4.266667-1.28 10.24-2.133333 15.36-1.706667l17.066667 1.28c8.533333 0 15.36 2.133333 22.186666 5.12l4.266667 2.133333c4.266667 1.706667 8.533333 0.853333 10.666667-2.133333L426.666667 29.866667l18.346666-19.2c4.266667-4.266667 9.386667-5.973333 14.933334-5.12 5.546667 0.853333 11.093333 2.986667 16.213333 5.546666 7.68 4.266667 14.08 5.973333 21.333333 5.973334h4.266667c9.386667 0 18.773333 1.28 28.16 3.413333l6.4 1.706667c6.4 1.706667 12.8-0.853333 17.066667-5.973334 1.28-2.133333 4.266667-2.56 5.973333-0.853333 1.28 0.853333 1.706667 1.706667 2.133333 2.986667 0.853333 8.533333 5.973333 14.933333 12.8 17.066666l6.826667 2.133334a34.133333 34.133333 0 0 1 17.92 12.8c4.266667 6.4 9.386667 12.8 15.36 17.066666l4.266667 4.266667c4.266667 4.266667 10.24 5.973333 16.213333 5.546667h25.173333c10.24 0 20.053333 1.706667 29.866667 5.973333 9.386667 4.266667 19.2 5.12 28.16 1.706667 9.386667-2.986667 19.2-4.266667 29.013333-2.986667l18.346667 2.986667c8.533333 0.853333 17.066667 5.12 22.186667 11.52l2.133333 2.133333c4.266667 4.266667 8.533333 9.813333 12.8 15.786667 2.56 5.546667 8.533333 8.533333 14.506667 8.533333h26.453333c6.4 0 12.8 1.28 17.92 4.266667 5.546667 4.266667 10.24 8.533333 14.506667 12.8l4.266666 5.546666c5.12 5.973333 7.68 14.08 7.253334 22.613334 0 6.826667 5.12 12.8 11.946666 12.8l8.533334 0.853333c5.973333 0 11.093333 4.266667 14.08 9.813333l4.266666 8.533334 11.093334 24.746666c1.706667 4.266667 2.133333 8.533333 1.706666 11.946667 0 4.266667 1.28 7.68 4.266667 9.386667l4.266667 2.986666c5.546667 4.266667 8.533333 10.666667 7.68 17.92l-2.986667 20.053334-0.853333 8.533333c-0.853333 4.266667 1.28 9.813333 5.12 12.8 6.4 4.266667 9.386667 9.813333 9.813333 16.213333v8.533334c0 4.266667-0.853333 9.386667-4.266667 12.8-2.56 3.413333-4.266667 7.68-4.266666 12.8l1.28 9.813333c0 6.826667 4.266667 12.8 8.533333 17.066667 5.973333 4.266667 9.386667 11.093333 10.24 17.92 1.706667 10.666667 2.133333 19.2 2.133333 27.733333v9.813333c0 3.413333 0 6.826667 1.28 10.24 0.853333 2.986667 2.986667 5.973333 5.546667 7.68l8.533333 6.4c8.533333 5.546667 14.506667 12.8 17.92 22.613334 4.266667 9.386667 5.546667 19.2 5.546667 29.013333v3.413333c0 7.68-0.853333 15.786667-3.413333 23.04a30.293333 30.293333 0 0 0 1.28 21.333334c3.413333 5.973333 5.546667 12.8 6.4 20.053333 1.706667 8.533333 0.853333 17.066667-2.133334 23.893333l-0.853333 2.986667c-2.133333 5.12-5.546667 9.813333-9.813333 13.653333-4.266667 4.266667-8.533333 6.826667-11.093334 9.813334-2.56 2.56-4.266667 6.826667-2.986666 10.666666l1.28 5.973334c2.133333 8.533333 2.133333 17.066667 0 24.746666v3.413334c-1.706667 6.4-4.266667 11.946667-6.826667 17.066666-2.986667 5.546667-7.253333 9.813333-12.8 12.8l-6.4 4.266667a11.093333 11.093333 0 0 0-5.12 9.386667c0 4.266667-1.706667 8.533333-4.266667 11.093333l-6.4 8.533333c-4.266667 5.546667-9.813333 10.24-15.786666 12.8-5.973333 4.266667-11.093333 8.533333-14.933334 12.8-4.266667 5.12-7.68 11.093333-9.386666 17.066667-1.706667 7.68-7.68 11.946667-14.08 11.946667h-23.04c-5.973333 0-11.52 4.266667-14.08 9.386666-2.986667 6.826667-5.973333 11.52-9.813334 15.786667a34.133333 34.133333 0 0 0-8.533333 15.36c-0.853333 5.12-5.12 8.533333-9.386667 6.826667-5.546667-2.56-11.093333 0-13.653333 4.266666-5.12 8.533333-10.24 14.933333-15.786667 20.48l-2.986666 2.56c-5.546667 4.266667-12.8 7.68-19.2 7.68-7.68 0-11.52 3.413333-12.8 8.533334-1.28 4.266667-2.133333 9.813333-2.56 14.506666-0.853333 5.12-2.56 9.813333-4.266667 14.08l-2.133333 2.56c-4.266667 6.4-7.68 12.8-11.946667 18.346667l-1.706667 2.56c-5.546667 7.253333-12.8 12.8-21.333333 14.933333a85.333333 85.333333 0 0 1-28.16 4.266667h-5.973333c-4.266667 0-8.533333 2.56-11.52 6.826667l-2.56 4.266666-2.56 5.12-5.546667 9.386667c-4.266667 7.68-10.666667 12.8-19.2 15.36-8.533333 2.133333-18.346667 2.986667-27.306667 2.56l-6.826666-0.853333c-5.973333 0-11.52-1.706667-17.066667-4.266667-4.266667-1.706667-10.24 0-12.8 4.266667-4.266667 5.973333-9.386667 9.386667-14.933333 11.093333l-12.8 4.266667c-8.533333 2.133333-17.92 2.133333-26.88 0l-6.826667-2.133334c-4.266667 0-8.533333-2.133333-11.946667-4.266666a23.04 23.04 0 0 0-12.8-2.56l-5.546666 0.853333c-8.533333 0.853333-16.213333 0-23.893334-2.133333l-11.52-2.56a24.32 24.32 0 0 1-12.8-9.813334 16.768 16.768 0 0 0-12.8-8.533333H422.4c-8.533333-1.28-16.213333-4.266667-21.333333-10.666667L384 960l-5.973333-5.12-9.386667-6.826667-5.546667-4.266666c-6.4-4.266667-14.08-7.68-22.186666-8.533334l-25.6-4.266666c-2.56 0-4.266667-0.853333-6.826667-1.28L298.666667 927.573333c-4.266667-0.853333-8.533333-4.266667-11.52-8.533333-2.56-4.266667-7.253333-5.973333-11.52-4.266667-8.533333 3.413333-15.36 4.266667-22.186667 5.546667H247.466667c-11.093333 0.853333-21.333333-0.853333-31.573334-5.546667-10.24-4.266667-17.066667-10.666667-23.466666-18.773333-5.12-7.253333-12.8-12.8-22.186667-14.506667l-11.946667-2.56c-8.533333-1.706667-17.066667-5.12-24.746666-10.24-8.533333-5.973333-12.8-11.52-16.213334-18.346666-3.413333-6.4-5.546667-13.653333-5.973333-21.333334v-3.413333a21.12 21.12 0 0 0-14.933333-18.346667c-9.813333-2.986667-17.066667-7.253333-23.466667-12.8a30.293333 30.293333 0 0 1-9.386667-22.186666l0.853334-18.773334c0-7.253333-2.133333-13.653333-7.253334-18.346666a26.453333 26.453333 0 0 1-8.533333-18.346667l-1.28-15.36a225.706667 225.706667 0 0 0-5.546667-33.28c-2.56-9.813333 1.28-19.626667 9.386667-24.32l2.986667-2.133333c4.266667-2.986667 5.973333-8.533333 3.413333-13.653334l-3.413333-4.266666a32 32 0 0 0-12.8-8.533334c-3.413333-0.853333-4.266667-4.266667-4.266667-6.4l4.266667-5.12c2.56-2.986667 2.133333-7.68 0-10.24a19.413333 19.413333 0 0 1-5.546667-11.946666l-0.853333-29.866667c0-5.973333 0.853333-11.946667 2.56-17.92 1.706667-5.12 0-11.093333-5.12-13.653333z m422.4-56.32c2.986667-2.986667 2.56-8.533333 0-10.666666a41.514667 41.514667 0 0 1-9.813334-11.52l-4.266666-6.826667a62.293333 62.293333 0 0 0-11.093334-14.506667l-0.853333-0.853333a36.693333 36.693333 0 0 1-9.813333-12.8c-2.133333-4.266667-2.133333-8.533333 0-12.8l2.56-4.266667c2.56-4.266667 4.266667-10.24 4.266666-15.36v-1.706666c0-4.266667-1.706667-8.533333-4.266666-12.8-1.706667-3.413333-3.413333-7.68-4.266667-11.946667V345.6c-1.28-5.12 0-10.666667 3.413333-14.933333 3.413333-5.546667 5.973333-10.666667 7.253334-17.066667v-0.853333c1.706667-4.266667 0.853333-9.813333-1.706667-14.08s-3.413333-8.533333-1.706667-13.653334l2.986667-8.533333c2.56-7.68 6.4-14.506667 11.52-20.48l5.973333-6.4 4.266667-5.12 2.56-2.56c2.56-2.56 2.986667-6.826667 0.853333-10.24-2.133333-4.266667-3.413333-8.533333-2.56-12.8l0.853334-5.973333c1.28-8.533333 4.266667-17.066667 9.813333-23.893334l1.706667-1.706666c6.4-8.533333 14.506667-14.08 23.893333-17.066667l11.52-4.266667c5.12-1.706667 8.533333-7.253333 8.533333-12.8 0-6.826667 2.133333-12.8 5.973334-18.346666l2.133333-2.133334c4.266667-7.253333 9.386667-14.506667 12.8-22.186666l2.986667-5.546667c0.853333-1.28 1.28-2.986667 1.28-4.266667 0-7.253333-4.266667-13.653333-11.093334-14.08L501.76 85.333333c-10.666667-0.853333-21.333333 0-31.573333 0l-36.266667 4.266667c-5.546667 0-9.813333 4.266667-10.24 10.24 0 5.973333-4.266667 11.093333-9.386667 12.8l-15.36 4.266667-4.266666 1.28-12.8 4.266666c-9.386667 2.986667-17.066667 9.813333-21.333334 19.2l-3.413333 5.546667c-4.266667 9.386667-11.52 17.066667-20.48 22.613333-8.533333 5.546667-12.8 14.506667-13.653333 24.746667v4.266667c-0.853333 8.533333-3.413333 17.066667-8.533334 23.04l-2.133333 3.413333c-3.413333 4.266667-4.266667 9.813333-2.133333 14.506667 2.133333 5.12 3.413333 10.666667 2.986666 16.213333v22.613333c0 5.973333-4.266667 11.093333-8.533333 12.8-5.973333 2.133333-9.813333 6.826667-11.52 12.8l-2.133333 8.533334c-1.706667 8.533333 1.28 17.066667 8.533333 22.186666 6.826667 5.12 11.093333 12.8 12.8 22.186667v7.68c1.28 8.533333 5.973333 17.066667 13.653333 21.333333 7.68 5.12 13.653333 12.8 17.066667 21.333334l2.133333 6.826666c3.413333 9.386667 11.093333 14.933333 19.626667 15.786667h2.56c7.68 0 14.506667 4.266667 18.773333 11.093333 4.266667 6.826667 11.093333 11.52 18.773334 12.8l11.946666 3.413334c7.253333 2.133333 14.08 5.973333 19.626667 11.52l0.853333 0.853333c4.266667 3.413333 11.093333 2.986667 14.933334-1.706667l2.986666-3.413333z m48.64-39.253333c4.266667 2.56 8.533333 1.28 10.24-2.56l1.28-2.133333c2.986667-5.973333 6.826667-11.946667 11.093333-17.066667l8.533333-12.8c1.28 0 1.706667-0.853333 2.133334-1.706667l10.24-13.653333c4.266667-4.266667 9.386667-7.253333 15.36-7.253333 5.546667 0 10.24-2.986667 12.8-8.533334 1.706667-5.973333 4.266667-11.52 9.386666-16.213333l2.133334-2.56c4.266667-4.266667 8.533333-6.4 12.8-8.533333 5.546667-0.853333 10.666667-1.706667 15.786666-1.706667h12.8c5.12 0 9.386667-2.133333 11.946667-6.4 2.56-4.266667 6.4-7.253333 10.666667-9.386667l4.266666-1.706666c6.826667-2.986667 14.506667-5.12 22.186667-5.973334l8.533333-0.853333c5.12 0 10.666667 0 15.786667 2.986667 4.266667 2.986667 9.813333 2.56 14.08-0.853334l2.986667-1.706666c6.4-4.266667 13.653333-7.68 21.333333-8.533334h0.853333c8.533333-1.706667 16.213333-1.706667 24.746667-1.28h4.266667c8.533333 1.28 15.786667 4.266667 21.333333 10.666667l1.28 1.706667c4.266667 4.266667 11.093333 7.68 17.066667 7.68h7.253333c2.133333 0 4.266667-0.853333 5.546667-2.986667 1.28-1.28 3.413333-2.56 5.546666-2.56h4.266667c5.973333 0 11.52 1.706667 17.066667 3.413333l7.253333 2.986667c6.826667 2.133333 14.08 4.266667 21.333333 5.12h5.12c3.413333 0 5.546667-2.133333 5.546667-5.12 0-4.266667-0.853333-8.533333-2.986667-11.946667L882.346667 298.666667c-3.413333-5.546667-5.973333-11.52-8.533334-17.066667l-0.853333-2.133333c-2.133333-4.266667-2.133333-8.533333 0-12.8V264.533333a7.253333 7.253333 0 0 0-4.266667-8.533333h-3.413333a33.962667 33.962667 0 0 1-17.066667-11.52l-4.266666-4.266667c-4.266667-4.266667-6.826667-10.666667-8.533334-17.066666-2.133333-5.546667-6.826667-9.813333-12.8-9.813334h-17.92a23.552 23.552 0 0 1-15.786666-9.386666l-1.706667-2.133334c-2.986667-4.266667-5.546667-9.386667-7.253333-14.506666-2.133333-4.266667-6.826667-6.826667-11.093334-5.546667l-5.12 1.706667c-8.533333 2.986667-17.066667 4.266667-25.6 3.413333l-6.826666-0.853333c-7.253333 0-14.08-2.986667-19.626667-7.253334l-4.266667-2.986666c-3.413333-2.56-6.826667-4.266667-10.666666-5.973334-4.266667-1.706667-7.68-0.853333-10.24 2.133334l-2.133334 2.56c-4.266667 4.266667-10.24 7.68-16.213333 8.533333l-23.04 1.28c-4.266667 0-8.533333 2.133333-11.52 5.12-3.413333 2.986667-7.253333 5.12-11.52 5.973333h-0.853333c-4.266667 0-8.533333 2.986667-12.8 5.973334v0.853333c-4.266667 4.266667-9.813333 6.4-15.36 6.4l-1.706667 0.853333c-5.12 0-10.24 0-15.36 1.28h-5.12c-7.253333 1.28-12.8 7.253333-14.506667 14.933334l-1.706666 9.813333a42.666667 42.666667 0 0 1-8.533334 18.346667c-4.266667 5.12-9.386667 8.533333-15.786666 8.533333H523.093333c-4.266667 0.853333-8.533333 5.546667-7.68 10.666667 0.853333 7.253333 0 13.653333-1.28 20.053333l-1.706666 7.253333c-1.706667 6.4-5.973333 11.52-11.52 13.653334l-2.56 1.28h-0.853334c-2.56 1.706667-4.266667 5.546667-2.133333 8.533333 2.56 4.266667 3.413333 8.533333 2.986667 12.8l-1.28 13.653333c0 5.12-2.133333 9.813333-4.266667 14.08-2.56 4.266667-2.56 8.533333-0.853333 12.8l4.266666 9.386667c2.133333 4.266667 2.56 8.533333 1.28 13.653333-1.28 4.266667-2.133333 8.533333-1.706666 12.8 0 4.266667 2.56 8.533333 5.973333 10.24l0.853333 0.853334z m337.066666 308.48c4.266667 4.266667 10.666667 5.973333 15.786667 2.56l8.533333-5.546667c4.266667-2.986667 7.68-7.253333 9.386667-12.8v-0.853333l4.266667-12.8 2.56-4.266667 1.706666-4.266666 1.706667-2.986667c1.706667-3.413333 4.266667-5.973333 8.533333-7.253333l1.706667-0.853334c3.413333-0.853333 5.546667-4.266667 5.546667-7.68 0-4.266667 2.133333-7.68 4.266666-10.666666l3.413334-2.986667 8.533333-11.093333v-0.853334c2.56-3.413333 4.266667-7.253333 5.12-11.52 0.853333-4.266667 0-8.533333-1.706667-12.8l-0.853333-1.706666a39.253333 39.253333 0 0 1-2.986667-11.093334l-1.28-11.946666-1.28-12.8c0-4.266667 1.706667-8.533333 4.266667-12.8a41.386667 41.386667 0 0 0 6.826667-11.946667v-1.706667l0.853333-0.853333c0.853333-4.266667-1.28-8.533333-5.12-8.533333-4.266667-2.133333-8.533333-5.546667-9.813333-10.666667l-1.28-2.56c-2.133333-7.68-3.413333-15.36-3.413334-23.04l0.853334-21.333333v-1.28a12.8 12.8 0 0 0-12.8-12.8h-0.853334c-8.533333 0-15.36-2.56-21.333333-8.533334l-3.413333-4.266666-8.533334-9.813334-11.093333-12.8c-4.266667-5.973333-8.533333-11.093333-14.08-16.213333-4.266667-4.266667-10.666667-8.533333-17.066667-9.386667l-8.533333-1.28c-4.266667-0.853333-9.813333-2.986667-14.506667-5.973333-3.413333-2.56-8.533333-1.706667-11.946666 1.706667l-5.546667 5.973333-2.56 1.706667c-2.986667 0.853333-5.973333-0.853333-7.253333-4.266667a21.418667 21.418667 0 0 1 0.853333-16.213333v-2.56c0-2.986667-2.56-5.12-5.12-4.266667h-6.826667c-7.68 0-15.36-0.853333-22.613333-4.266667l-4.266667-1.706666a32.597333 32.597333 0 0 0-14.08-3.413334c-4.266667 0-8.533333 0.853333-12.8 3.413334l-1.706666 1.28c-5.12 3.413333-11.093333 5.12-17.066667 5.546666h-14.08c-6.4 0-12.8 2.133333-17.066667 5.546667-5.546667 3.413333-11.52 5.546667-17.92 6.826667l-11.52 1.706666c-5.12 1.28-10.666667 3.413333-15.36 7.253334-4.266667 4.266667-10.24 6.826667-15.786666 8.533333l-2.133334 0.853333a31.573333 31.573333 0 0 0-17.066666 12.8l-5.12 5.12a11.52 11.52 0 0 0 0 13.653334c2.56 4.266667 7.68 5.546667 12.8 4.266666l6.4-2.56c3.413333-1.28 7.253333 0 10.24 1.706667 2.56 2.133333 6.4 3.413333 10.24 2.986667l10.666666-1.28c5.973333 0 11.946667 0 17.92 1.706666 6.4 2.133333 11.946667 4.266667 17.066667 8.533334s10.666667 5.973333 17.066667 6.826666c6.4 0.853333 12.8 2.133333 18.773333 4.266667l4.266667 0.853333c4.266667 1.28 7.68 4.266667 10.24 8.533334 2.133333 3.413333 4.266667 8.533333 4.266666 12.8v1.28c0 5.12 4.266667 8.533333 8.533334 8.533333h2.56c6.826667 0 14.08 0.853333 21.333333 2.986667l2.986667 1.28c4.266667 1.706667 8.533333 4.266667 11.52 8.533333 3.413333 4.266667 5.546667 8.533333 6.826666 12.8l1.28 5.973333c1.28 6.4 1.706667 12.8 1.706667 19.626667v2.133333c0 4.266667 2.986667 8.533333 7.68 10.24 4.266667 0.853333 9.386667 2.56 14.08 5.12l2.133333 0.853334c5.546667 3.413333 11.093333 7.68 15.36 12.8l2.133334 2.986666c5.546667 6.4 8.533333 14.506667 8.533333 22.613334v2.986666c0 6.4-1.28 12.8-3.413333 18.773334-1.706667 5.12 0 11.093333 5.546666 12.8l2.986667 2.133333c6.4 2.56 11.946667 7.253333 16.213333 12.8 4.266667 6.4 5.973333 13.653333 5.973334 21.333333v12.8c-0.853333 4.266667-2.133333 7.68-4.266667 10.666667s-2.133333 7.253333 0 10.24l2.56 4.266667z m-273.066666-218.453333h-0.853334c-1.706667 0-2.56 2.133333-2.133333 4.266666l1.706667 8.533334c1.706667 6.826667 2.56 13.653333 3.413333 20.48 0.853333 6.826667 4.266667 12.8 9.386667 17.066666h1.706666c6.4 5.12 10.24 12.8 10.666667 20.48v21.333334c-0.853333 4.266667 0 8.533333 2.56 11.946666l2.133333 2.133334c4.266667 5.12 5.973333 11.093333 6.4 17.066666l1.28 23.466667c0 5.546667-3.413333 10.24-8.533333 11.093333l-4.266667 0.853334c-2.986667 0-4.266667 3.413333-4.266666 6.4 0 3.413333 1.28 7.253333 2.56 10.666666v0.853334c1.28 4.266667 1.706667 8.533333 1.28 12.8l-1.706667 11.52c-1.706667 8.533333-4.266667 16.213333-8.533333 23.893333l-2.986667 5.12a18.346667 18.346667 0 0 1-8.533333 8.533333c-4.266667 1.706667-7.253333 5.12-8.533334 9.386667l-3.413333 15.36c-2.133333 8.533333-5.973333 17.066667-11.093333 25.6h-0.853334c-5.12 6.826667-11.52 12.8-19.2 17.066667l-5.12 3.413333-12.8 6.4c-4.266667 1.706667-6.826667 5.546667-7.68 10.24l-2.133333 14.08c-1.28 8.533333-4.266667 15.786667-10.24 21.333333l-5.546667 6.4-6.4 6.4L469.333333 896c-5.12 5.973333-12.8 8.533333-21.333333 7.253333l-15.36-2.986666-14.08-1.706667h-3.84c-1.706667 1.706667-2.133333 4.266667-0.853333 6.826667 2.986667 5.12 7.68 8.533333 12.8 8.533333l9.386666 1.706667c4.266667 0 9.386667 2.133333 13.653334 4.266666 4.266667 2.986667 8.533333 5.12 13.653333 6.4h0.853333c5.546667 2.133333 11.52 2.56 17.066667 2.133334l6.4-0.853334c7.253333-0.853333 14.08 0 20.053333 2.56l5.12 1.706667c2.133333 0.853333 5.546667 0 7.68-2.133333 2.56-2.56 5.12-4.266667 8.533334-5.546667l3.413333-0.853333c5.546667-1.706667 11.093333-2.56 17.066667-2.56h3.413333c5.12 0 9.813333 0.853333 14.08 3.413333l1.706667 0.853333c2.986667 1.28 6.4 0 8.533333-2.56 1.28-2.986667 4.266667-5.973333 7.253333-8.533333l10.666667-7.253333 6.826667-4.266667 3.413333-2.133333c4.266667-2.986667 10.24-4.266667 15.36-4.266667l15.36-1.28c5.973333-0.853333 11.093333-5.12 12.8-11.093333 1.706667-6.4 4.266667-12.8 8.533333-18.346667s8.533333-10.24 12.8-14.506667c5.546667-4.266667 11.093333-6.4 17.066667-6.826666h3.413333c6.826667-1.28 11.946667-7.68 11.52-14.506667v-28.586667c0.853333-4.266667 2.56-9.813333 5.12-14.08l8.533334-12.8 3.413333-4.266666c2.56-2.133333 4.266667-5.12 7.253333-8.533334l4.266667-5.546666a11.52 11.52 0 0 0-0.853333-13.653334c-4.266667-4.266667-6.4-10.24-7.253334-16.213333v-1.706667c-0.853333-6.826667-0.853333-14.08 1.28-21.333333v-2.133333c2.133333-5.546667 5.12-11.093333 8.533334-16.213334 3.413333-4.266667 2.986667-10.24-1.28-13.653333l-7.253334-6.4a31.573333 31.573333 0 0 1-10.24-20.48l-0.853333-8.533333c0-2.56 0-5.546667-0.853333-8.533334l-0.853334-6.4a24.448 24.448 0 0 0-11.093333-17.066666l-2.986667-0.853334c-4.266667-2.56-8.533333-6.4-11.946666-11.52-3.413333-4.266667-5.12-10.24-6.4-16.213333l-1.28-7.253333c0-2.56-1.706667-4.266667-4.266667-5.546667l-6.826667-2.133333-13.653333-4.266667c-4.266667-0.853333-8.533333-4.266667-11.52-7.253333h-0.853333a6.101333 6.101333 0 0 0-9.386667-0.853334l-4.266667 4.266667c-0.853333 1.28-1.706667 1.706667-2.986666 1.28-2.56 0-4.266667-2.133333-3.413334-4.266667a19.370667 19.370667 0 0 0-7.253333-17.92l-5.546667-4.266666-12.8-8.533334c-3.413333-1.28-8.533333 0-10.24 4.266667l-1.706666 2.56c0 0.853333-1.28 1.28-1.706667 1.706667-1.706667 0-4.266667 0-4.266667-2.133334l-1.28-2.133333c-1.28-2.56-4.266667-4.266667-6.826666-5.12z m-51.2 42.666666l-2.133334-2.133333c-2.133333-1.706667-4.266667-1.28-6.4 0.853333-2.986667 5.12-5.546667 10.666667-6.826666 16.213334v0.853333c-1.28 5.546667-6.4 9.386667-11.52 8.533333H484.266667c-5.973333 0-10.666667 5.12-10.666667 11.093334 0 7.68-2.56 15.36-7.253333 21.333333l-2.56 2.56c-4.266667 5.546667-10.666667 9.386667-17.066667 11.52l-3.413333 0.853333c-4.266667 1.28-7.68 4.266667-8.533334 9.386667 0 4.266667-2.56 8.533333-5.973333 11.946667l-4.266667 3.413333c-5.12 5.546667-12.8 8.533333-20.48 9.386667l-21.333333 2.133333c-6.826667 0-12.8 4.266667-17.066667 10.666667-4.266667 6.4-10.666667 10.666667-17.066666 11.52l-9.386667 0.853333c-6.826667 0.853333-14.08 0.853333-21.333333-0.853333l-4.266667-0.853334-11.52-2.986666c-4.266667-1.28-7.68 0-10.24 2.986666l-4.266667 5.546667a24.746667 24.746667 0 0 1-21.333333 8.533333l-27.733333-3.413333c-4.266667 0-7.68-2.133333-11.52-4.266667-4.266667-2.56-7.253333-5.546667-10.24-8.533333l-10.666667-12.8c-1.28-0.853333-3.413333-1.28-5.546667-0.853333l-5.973333 2.56-23.893333 5.973333c-4.266667 1.28-9.813333 0-14.08-2.56-4.266667-3.413333-9.386667-4.266667-14.506667-4.266667H136.533333c-5.12 1.28-8.533333 6.826667-6.826666 11.946667l1.706666 8.533333c1.28 4.266667 0.853333 9.386667-1.28 13.653334s-1.706667 8.533333 1.28 12.8l2.56 3.413333c3.413333 5.12 8.533333 9.386667 12.8 13.653333 4.266667 4.266667 8.533333 8.533333 11.946667 14.08l6.4 11.52c3.413333 5.973333 8.533333 9.386667 15.36 9.386667 6.4 0 12.8 2.133333 17.92 6.4l12.8 11.946667c3.413333 2.986667 8.533333 3.413333 11.946667 0.853333l2.133333-0.853333c2.56 0 4.266667 1.706667 4.266667 4.266666v2.133334c0 5.546667 4.266667 10.666667 9.813333 12.8l19.2 4.266666c6.826667 2.133333 13.653333 4.266667 20.053333 8.533334h3.413334c3.413333 0 6.4-2.986667 5.973333-6.826667v-14.933333c0-4.266667 1.706667-8.533333 5.12-10.24l2.133333-0.853334c2.133333 0.853333 4.266667 2.56 3.413334 4.266667v7.253333c0 5.546667 1.706667 10.666667 5.546666 14.506667 4.266667 4.266667 9.813333 5.12 14.506667 3.413333 5.12-2.133333 10.24-2.56 15.786667-2.133333l15.786666 0.853333c7.68 0.853333 14.933333 0 21.333334-2.986666 7.68-2.56 14.08-5.973333 20.053333-10.666667l2.56-1.706667 12.8-11.52c4.266667-4.266667 9.813333-6.4 14.933333-6.4h17.066667c8.533333-0.853333 16.213333-8.533333 17.066667-17.066666l1.706666-8.533334c0-5.546667 2.56-10.666667 6.4-14.933333 4.266667-4.266667 8.533333-6.826667 12.8-8.533333l5.12-2.133334c7.253333-2.986667 12.8-9.386667 15.36-17.066666l2.56-10.24c2.133333-8.533333 6.4-17.066667 12.8-22.613334l0.853334-0.853333c5.12-4.266667 5.973333-12.8 2.56-18.773333l-1.28-2.986667a17.92 17.92 0 0 1-1.28-16.213333c2.133333-5.973333 4.266667-11.093333 7.68-16.213334l4.266666-5.973333c1.706667-3.413333 1.706667-8.533333-0.853333-11.52a20.394667 20.394667 0 0 1-4.266667-11.946667l-0.853333-5.973333v-14.506667c0.853333-4.266667 0-9.813333-1.28-14.08l-1.706667-5.12z m-61.013334-32.426666v-1.28c0-4.266667-2.56-6.826667-5.973333-6.826667h-11.093333c-4.266667 0.853333-8.533333 0.853333-11.946667 0h-19.2c-9.813333 0-19.2-1.706667-28.586667-4.266667l-10.24-2.56-8.533333-2.56-19.2-6.4a36.224 36.224 0 0 1-22.613333-19.2l-2.133334-4.266666a14.378667 14.378667 0 0 0-15.786666-8.533334c-7.253333 0-14.506667 0-21.333334-3.413333l-5.12-2.133333c-9.813333-4.266667-17.066667-12.8-17.066666-24.32l-1.706667-11.52c-1.28-5.973333-5.12-11.52-10.24-13.653334-5.973333-2.56-11.52-5.973333-17.066667-9.813333l-2.133333-1.28a46.933333 46.933333 0 0 1-14.933333-20.053333l-0.853334-2.56a40.106667 40.106667 0 0 1-0.853333-21.333334l0.853333-2.56c1.706667-5.546667 2.133333-11.093333 2.133334-17.066666a20.053333 20.053333 0 0 0-5.973334-14.08l-5.973333-5.546667a30.976 30.976 0 0 1-11.52-22.613333c-0.853333-9.386667-0.853333-18.346667 0.853333-27.306667v-2.56a8.533333 8.533333 0 0 0-8.533333-8.533333H179.2c-5.546667 0-10.24 3.413333-12.8 8.533333-2.133333 5.973333-5.546667 10.666667-9.386667 15.36l-1.706666 2.133333-8.533334 8.533334-4.266666 4.266666c-4.266667 4.266667-6.826667 10.666667-7.68 17.066667-0.853333 6.4-2.56 12.8-5.12 18.773333l-0.853334 2.133334c-2.133333 5.12-5.546667 9.813333-9.813333 12.8-4.266667 3.413333-7.253333 8.533333-7.253333 13.653333l-0.853334 19.626667c0 8.533333-1.28 17.066667-4.266666 25.6l-0.853334 3.413333c-2.133333 5.546667 0 11.52 5.12 14.08l17.92 7.68 1.706667 0.853333c1.28 0 1.706667 0.853333 2.133333 2.133334 1.28 1.706667 0 4.266667-1.28 4.266666l-4.266666 2.133334c-2.56 0.853333-4.266667 3.413333-5.12 6.4l-0.853334 4.266666v0.853334l-4.266666 23.893333c-0.853333 3.413333-0.853333 7.253333-0.853334 11.093333 0 3.413333 2.133333 6.4 5.12 7.68l9.386667 4.266667c4.266667 2.56 9.386667 5.546667 12.8 8.533333l4.266667 3.413334c1.28 1.706667 3.413333 3.413333 5.12 4.266666l1.706666 1.706667c2.986667 2.56 5.12 5.973333 5.973334 9.813333l4.266666 19.2c0 5.12 4.266667 9.386667 8.533334 10.666667l6.826666 2.133333s1.28 0 2.133334 0.853334l8.533333 2.56c6.826667 2.133333 12.8 5.973333 17.92 11.093333 5.12 4.266667 10.24 9.813333 14.506667 15.786667l1.706666 1.706666c3.413333 4.266667 8.533333 6.4 13.653334 5.12s10.666667-1.706667 16.213333-1.706666h6.4c4.266667 0 9.813333 1.28 14.506667 4.266666 4.266667 2.56 9.813333 4.266667 14.933333 6.4h1.28c5.12 2.133333 10.666667 1.28 14.933333-1.706666 4.266667-3.413333 9.813333-5.12 15.36-5.12l20.053334 1.28c4.266667 0 8.533333-0.853333 10.666666-4.266667h0.853334l7.253333-6.826667 2.133333-2.133333c3.413333-4.266667 8.533333-5.973333 13.653334-6.4h19.2c5.12 0 9.813333-4.266667 11.946666-8.533333 2.133333-4.266667 6.4-7.68 11.52-8.533334l8.533334-1.706666c3.413333 0 6.4-2.986667 7.68-6.826667 1.28-4.266667 3.413333-7.68 6.4-10.24l6.826666-6.826667c4.266667-4.266667 6.4-8.533333 7.253334-13.653333z" fill="#4f93e5" /></svg>